<svg xmlns="http://www.w3.org/2000/svg" xmlns:xlink="http://www.w3.org/1999/xlink" width="130" height="40" viewBox="0 0 130 40">
  <defs>
    <clipPath id="clip-DM_logo_130x40">
      <rect width="130" height="40"/>
    </clipPath>
  </defs>
  <g id="DM_logo_130x40" clip-path="url(#clip-DM_logo_130x40)">
    <g id="Layer_2" data-name="Layer 2">
      <g id="Layer_1" data-name="Layer 1">
        <path id="Path_1621" data-name="Path 1621" d="M7.312,3.912v22.6a1.834,1.834,0,0,0,1.35,1.841,17.44,17.44,0,0,0,2.967.765,17.938,17.938,0,0,0,3.061.332,12.452,12.452,0,0,0,6.757-1.884Q26.5,24.406,26.5,16.819a17.938,17.938,0,0,0-1.588-7.58A13.347,13.347,0,0,0,20.537,3.8a13.867,13.867,0,0,0-8.265-2.433c-2.31,0-3.775.253-4.4.722a2.209,2.209,0,0,0-.57,1.8M3.934,5.631a5.631,5.631,0,0,0-.722-3.256A3.256,3.256,0,0,0,.722,1.169C.238,1.119,0,.975,0,.722S.188.282.57.282L2.3.375H3.84A33.266,33.266,0,0,0,7.291.3L9.334.108Q10.655,0,12.272,0q8.973,0,13.47,4.526a14.318,14.318,0,0,1,4.107,10.561,16.292,16.292,0,0,1-1.8,7.616,13.824,13.824,0,0,1-5.01,5.45,16.307,16.307,0,0,1-8.828,2.527c-.383,0-1.061-.036-2.021-.115q-2.945-.2-5.125-.2a31.912,31.912,0,0,0-4.086.231c-.527.072-.938.115-1.249.13-.513,0-.765-.13-.765-.484,0-.238.2-.4.606-.484a2.671,2.671,0,0,0,1.927-1.1,7.832,7.832,0,0,0,.433-3.234Z" fill="#4a3c31"/>
        <path id="Path_1622" data-name="Path 1622" d="M47.617,4q.527,0,1.083.888l.534.845a1.025,1.025,0,0,1,.217.556,2.382,2.382,0,0,1-.722,1.444c-.52.606-.931.91-1.242.91s-.722-.3-1.169-.888a2.555,2.555,0,0,1-.722-1.4A2.613,2.613,0,0,1,46.4,4.91Q47.176,4,47.617,4M49.01,27.959a4.367,4.367,0,0,0,.339,2.093,1.992,1.992,0,0,0,1.444.679l1.011.108c.534.072.787.26.78.563s-.217.361-.6.361a10.384,10.384,0,0,1-1.444-.094c-.4,0-.91-.043-1.545-.043H47.552l-1.581.022a6.128,6.128,0,0,0-.722.058c-.383.043-.65.065-.794.065-.4,0-.6-.137-.6-.411a.5.5,0,0,1,.4-.476l.411-.13a1.566,1.566,0,0,0,1.018-.837,4.728,4.728,0,0,0,.289-1.906V18.437a5.168,5.168,0,0,0-.346-2.368c-.238-.368-.722-.549-1.516-.549-.556,0-.823-.108-.808-.332s.39-.411,1.126-.628a22.551,22.551,0,0,0,3.147-1.444l1.169-.549c.188,0,.282.188.282.527Z" transform="translate(-12.043 -1.113)" fill="#4a3c31"/>
        <path id="Path_1623" data-name="Path 1623" d="M63.531,16.922a3.458,3.458,0,0,0-2.808,1.48,5.7,5.7,0,0,0-1.141,3.609,7.587,7.587,0,0,0,1.227,4.476,3.718,3.718,0,0,0,3.133,1.747,3.508,3.508,0,0,0,2.887-1.408,5.825,5.825,0,0,0,1.1-3.7,7.435,7.435,0,0,0-1.263-4.461,3.739,3.739,0,0,0-3.147-1.754M59.5,35.59a3.14,3.14,0,0,0-2.086,3.039,3.176,3.176,0,0,0,1.444,2.765,7.067,7.067,0,0,0,4.021,1,9.868,9.868,0,0,0,5-1.155,3.348,3.348,0,0,0,2.007-2.887c0-1.372-1.032-2.05-3.1-2.05-.274,0-1.054-.043-2.324-.13l-2.31-.18a11.911,11.911,0,0,1-2.656-.419m-.96-.3v-.152a3.219,3.219,0,0,1-1.487-2.5,5.289,5.289,0,0,1,2.57-4.4,5.84,5.84,0,0,1-2.931-5.414,6.381,6.381,0,0,1,1.927-4.743,6.562,6.562,0,0,1,4.829-1.9,8.619,8.619,0,0,1,4.707,1.321,2.469,2.469,0,0,0,1.083.491,3.7,3.7,0,0,0,1.761-.57,2.462,2.462,0,0,0,1.184-1.112l.289-.837a.361.361,0,0,1,.346-.267c.238,0,.361.166.361.534a8.251,8.251,0,0,1-.346,1.718,9.666,9.666,0,0,1-.614,1.776,1.963,1.963,0,0,1-1.292,1c-.282.087-.419.224-.419.4a1.912,1.912,0,0,0,.065.419,7.1,7.1,0,0,1,.195,1.855,5.717,5.717,0,0,1-2.043,4.331,6.858,6.858,0,0,1-4.764,1.855,13.816,13.816,0,0,1-2.613-.274,3.53,3.53,0,0,0-.722-.087,1.776,1.776,0,0,0-1.285.78,2.5,2.5,0,0,0-.614,1.624,1.675,1.675,0,0,0,1.206,1.631,12.192,12.192,0,0,0,4.107.484q4.331,0,6.114.9a3.191,3.191,0,0,1,1.79,3.1,5.12,5.12,0,0,1-2.512,4.281,10.438,10.438,0,0,1-6.157,1.761,11.68,11.68,0,0,1-5.7-1.213,3.583,3.583,0,0,1-2.166-3.183q0-2.541,3.176-3.609" transform="translate(-15.412 -4.225)" fill="#4a3c31"/>
        <path id="Path_1624" data-name="Path 1624" d="M86.957,19.854q2.945-3.487,6.107-3.494a6.5,6.5,0,0,1,5.566,2.887c.938,1.321,1.4,3.335,1.4,6.035v5.926l.072,1.054a1.949,1.949,0,0,0,1.848,1.7l.924.137c.4.051.6.188.614.411s-.224.455-.722.455a7.94,7.94,0,0,1-.859-.072c-.484-.058-1.372-.087-2.678-.087l-2.166.072h-.837l-.635.043-.3-.065a.354.354,0,0,1-.159-.339c0-.231.137-.375.4-.44l.657-.173c.585-.144.881-.671.881-1.581v-7.58a7.081,7.081,0,0,0-1.444-4.714,4.966,4.966,0,0,0-4.006-1.66,5.169,5.169,0,0,0-3.234,1.083A3.046,3.046,0,0,0,86.935,21.9V32.054c.079,1.234,1.1,1.906,3.068,2.021.484.051.722.209.722.476s-.173.411-.505.411a8.887,8.887,0,0,1-1.126-.115c-.274,0-.967-.043-2.072-.043q-3.494,0-4.18.087c-.455.051-.722.072-.881.072-.282,0-.411-.123-.4-.368s.152-.325.411-.44a2.887,2.887,0,0,0,1.494-.96,3.393,3.393,0,0,0,.383-1.841v-9.9a4.179,4.179,0,0,0-.368-2.108,1.559,1.559,0,0,0-1.4-.556h-.938a.722.722,0,0,1-.224-.072.332.332,0,0,1-.2-.318c0-.217.195-.361.57-.433a11.55,11.55,0,0,0,2.83-.9l1.133-.57.852-.411a1.148,1.148,0,0,1,.527-.173c.267,0,.383.209.354.635v.83Z" transform="translate(-22.451 -4.428)" fill="#4a3c31"/>
        <path id="Path_1625" data-name="Path 1625" d="M116.864,4c.346,0,.722.3,1.083.888l.534.845a1.047,1.047,0,0,1,.224.556,2.49,2.49,0,0,1-.722,1.444c-.52.606-.931.91-1.242.91s-.722-.3-1.169-.888a2.555,2.555,0,0,1-.722-1.4,2.613,2.613,0,0,1,.808-1.444q.765-.91,1.206-.91m1.393,23.959a4.367,4.367,0,0,0,.375,2.028,1.992,1.992,0,0,0,1.444.679l1.018.108c.527.072.78.26.765.563s-.209.361-.592.361a10.384,10.384,0,0,1-1.444-.094c-.4,0-.91-.043-1.545-.043h-1.444l-1.61.079a6.128,6.128,0,0,0-.722.058c-.383.043-.65.065-.794.065-.4,0-.6-.137-.6-.411a.5.5,0,0,1,.4-.476l.411-.13a1.566,1.566,0,0,0,.967-.837A4.728,4.728,0,0,0,115.16,28V18.437a5.169,5.169,0,0,0-.346-2.368c-.238-.368-.722-.549-1.516-.549-.556,0-.83-.108-.808-.332s.39-.411,1.126-.628a22.551,22.551,0,0,0,3.147-1.444l1.169-.549c.188,0,.282.188.282.527Z" transform="translate(-31.287 -1.113)" fill="#4a3c31"/>
        <path id="Path_1626" data-name="Path 1626" d="M129.972,17.708V28.76a4.319,4.319,0,0,0,.606,2.794,3.371,3.371,0,0,0,2.563.946,4.764,4.764,0,0,0,2.252-.491l1.133-.556.13-.043c.173,0,.267.079.267.245,0,.476-.585,1-1.732,1.566a7.421,7.421,0,0,1-3.234.845q-5.053,0-5.053-5.27V17.708H124.94c-.383,0-.57-.108-.57-.332s.188-.469.577-.794a19.432,19.432,0,0,0,3.97-4.367c.4-.65.671-.975.83-.975s.3.195.3.577l-.087,3.8h4.627a2.671,2.671,0,0,0,1.48-.346,1.444,1.444,0,0,1,.5-.253c.166,0,.238.051.224.238a1.812,1.812,0,0,1-.209.556l-.513,1.256a.931.931,0,0,1-.96.635Z" transform="translate(-34.592 -3.126)" fill="#4a3c31"/>
        <path id="Path_1627" data-name="Path 1627" d="M153.331,32.024l3.328-9.074a7.818,7.818,0,0,0,.534-2.591,2.093,2.093,0,0,0-.484-1.53,4.144,4.144,0,0,0-1.877-.8c-.354-.079-.534-.245-.534-.491a.372.372,0,0,1,.44-.4l.873.072c.325.036.982.051,1.978.051s1.855,0,2.3-.043l1.025-.036c.3,0,.455.13.455.383s-.152.368-.462.5a3.14,3.14,0,0,0-1.227.722,4.9,4.9,0,0,0-.758,1.494l-7.774,21.966-.224.722c-.108.383-.253.606-.411.664a7.326,7.326,0,0,1-1.545.087q-1.494,0-1.494-.325a.671.671,0,0,1,.267-.44,15.628,15.628,0,0,0,2.656-3.609,7.659,7.659,0,0,0,1.133-3.4,8.85,8.85,0,0,0-.837-2.62l-5.522-12.813a7.305,7.305,0,0,0-.975-1.761,2.361,2.361,0,0,0-1.2-.686c-.318-.087-.484-.217-.484-.4,0-.318.217-.476.642-.476a8.654,8.654,0,0,1,1.155.058c.354.043,1.09.065,2.216.065a28.8,28.8,0,0,0,2.887-.072c.361-.036.628-.051.787-.051.4,0,.592.123.592.419s-.39.433-1.177.541-1.314.505-1.314,1.112a7.219,7.219,0,0,0,.722,2.454Z" transform="translate(-39.638 -4.767)" fill="#4a3c31"/>
        <path id="Path_1628" data-name="Path 1628" d="M173.672,20.277h.419c.476,0,.888-.173.888-.628,0-.318-.238-.635-.888-.635a2.823,2.823,0,0,0-.419,0Zm0,2.014h-.585V18.682a6.576,6.576,0,0,1,1.032-.087,1.906,1.906,0,0,1,1.126.274.852.852,0,0,1,.339.722.9.9,0,0,1-.722.888h0c.325.058.541.346.614.881a2.988,2.988,0,0,0,.231.9h-.614a2.729,2.729,0,0,1-.245-.931.679.679,0,0,0-.78-.635h-.4Zm.606-4.656a2.685,2.685,0,0,0-2.606,2.758,2.62,2.62,0,1,0,5.226,0,2.678,2.678,0,0,0-2.606-2.772Zm0-.505a3.27,3.27,0,1,1-3.248,3.263,3.219,3.219,0,0,1,3.248-3.263Z" transform="translate(-47.57 -4.764)" fill="#4a3c31"/>
        <path id="Path_1629" data-name="Path 1629" d="M95.442,46.309H95.3c-.094-.4-.419-.635-1.169-.635h-1.4a15.963,15.963,0,0,0-.072,1.646v.9h1.566c.5,0,.671-.115.772-.462h.159v1.206h-.159c-.1-.332-.274-.448-.772-.448H92.656v2.707h1.862a.953.953,0,0,0,.982-.614h.144l-.13,1.011a2.678,2.678,0,0,0-.505-.065H91.4v-.13c.375,0,.505-.137.505-.534v-2.5c0-2.772-.036-2.844-.505-2.887v-.166h3.566c.195,0,.253-.051.3-.144h.18Z" transform="translate(-25.422 -12.569)" fill="#4a3c31"/>
        <path id="Path_1630" data-name="Path 1630" d="M102.481,50.351l2.5-5.132h.152l.26,5.327c.036.722.094.8.484.866v.137h-1.566v-.166c.383,0,.448-.282.448-.606V50l-.18-3.176h-.036l-2.216,4.519-2.584-4.526H99.7l-.173,2.808v.881c0,.621.253.837.556.873v.166H98.54v-.166c.476-.108.541-.26.6-1.039l.339-5.154h.115Z" transform="translate(-27.408 -12.569)" fill="#4a3c31"/>
        <path id="Path_1631" data-name="Path 1631" d="M84.112,50.351l2.5-5.132h.152l.26,5.327c0,.722.087.8.484.866v.137H85.946v-.166c.375,0,.448-.282.448-.606V50l-.173-3.176h0L84,51.347l-2.584-4.526h-.043L81.2,49.629v.881c0,.621.245.837.556.873v.166H80.2v-.166c.476-.108.549-.26.6-1.039l.346-5.154H81.3Z" transform="translate(-22.307 -12.569)" fill="#4a3c31"/>
        <path id="Path_1632" data-name="Path 1632" d="M112.833,51.322c1.653,0,2.353-1.285,2.353-2.887s-.722-2.887-2.353-2.887-2.346,1.285-2.346,2.887.722,2.887,2.346,2.887m0-6.093a3.191,3.191,0,1,1-3.183,3.191,3.111,3.111,0,0,1,3.183-3.191" transform="translate(-30.498 -12.58)" fill="#4a3c31"/>
        <path id="Path_1633" data-name="Path 1633" d="M120.633,48.579a2.779,2.779,0,0,0,.411.051,1.531,1.531,0,1,0,.058-3.061c-.361,0-.433,0-.433.3,0,.411-.036.9-.036,1.278Zm-.722-.1V46.218c0-.469-.094-.722-.491-.722v-.159c.433,0,1.2-.058,1.675-.058,1.234,0,2.389.462,2.389,1.848a1.826,1.826,0,0,1-1.516,1.624l1.978,2.3a1.112,1.112,0,0,0,.563.361v.159c-.231,0-.462-.043-.722-.043s-.462.043-.722.043v-.166s.072-.043.072-.065a.361.361,0,0,0-.072-.137l-1.509-1.8a1.343,1.343,0,0,0-.924-.513v2.043c0,.274.116.534.426.534v.1c-.224,0-.491-.043-.8-.043s-.534.043-.722.043v-.166c.3,0,.419-.26.419-.534Z" transform="translate(-33.215 -12.594)" fill="#4a3c31"/>
        <path id="Path_1634" data-name="Path 1634" d="M129.688,45.538c-.354,0-.448.26-.448.534l-.051,4.851c0,.274.144.534.419.534v.137h-1.487v-.166c.253,0,.4-.26.4-.534l-.051-4.851c0-.274-.094-.534-.448-.534V45.35h1.66Z" transform="translate(-35.607 -12.614)" fill="#4a3c31"/>
        <path id="Path_1635" data-name="Path 1635" d="M133.419,49.434h2.245l-1.054-2.887Zm-.144.361-.289.787a1.675,1.675,0,0,0-.058.491c0,.159.159.274.383.354v.137c-.224,0-.455-.036-.679-.036s-.469.036-.722.036V51.4c.448-.144.513-.354.671-.722l2.166-5.443h.115l1.942,5.443a.989.989,0,0,0,.722.722v.159c-.267,0-.541-.036-.808-.036s-.534.036-.8.036V51.4c.115-.079.31-.195.31-.3a1.292,1.292,0,0,0-.094-.383l-.354-.946Z" transform="translate(-36.689 -12.583)" fill="#4a3c31"/>
        <path id="Path_1636" data-name="Path 1636" d="M141.65,48.726c0-3,0-3.075-.52-3.147V45.42h1.66v.159c-.31,0-.426.26-.426.534,0,.433-.051,1.79-.051,2.613s.051,1.9.051,2.591h1.776a1.1,1.1,0,0,0,1.184-.722l.152.043-.224,1.076a4.576,4.576,0,0,0-.881-.072h-3.162v-.166c.3,0,.419-.26.419-.534Z" transform="translate(-39.254 -12.633)" fill="#4a3c31"/>
      </g>
    </g>
  </g>
</svg>
