<svg xmlns="http://www.w3.org/2000/svg" width="65" height="65" viewBox="0 0 65 65">
  <g id="share-obituary" transform="translate(-687 -8438.997)">
    <circle id="Ellipse_396" data-name="Ellipse 396" cx="32.5" cy="32.5" r="32.5" transform="translate(687 8438.997)" fill="#def0f0"/>
    <g id="Group_5710" data-name="Group 5710" transform="translate(702.6 8453.16)">
      <path id="Path_2810" data-name="Path 2810" d="M3.5,34.2H27.314a2.093,2.093,0,0,0,2.1-2.1V18.993L38.375,12.1,26.434,2.914V7.764H3.5a2.093,2.093,0,0,0-2.1,2.1V32.1A2.093,2.093,0,0,0,3.5,34.2Z" transform="translate(0 -1.695)" fill="none" stroke="#47d5cd" stroke-linecap="round" stroke-linejoin="round" stroke-miterlimit="10" stroke-width="2"/>
      <path id="Path_2811" data-name="Path 2811" d="M29.629,1.2V6.817C23.113,8.465,17.271,14.681,14.2,24.043c3.3-2.921,5.692-5.393,8.388-7.34a13.777,13.777,0,0,1,7.04-2.7v5.617l11.983-9.212Z" transform="translate(-3.213 0)" fill="none" stroke="#47d5cd" stroke-linecap="round" stroke-linejoin="round" stroke-miterlimit="10" stroke-width="2"/>
    </g>
  </g>
</svg>
